<?xml version="1.0" encoding="UTF-8"?><svg id="Layer_2" xmlns="http://www.w3.org/2000/svg" viewBox="0 0 837.0204 90.0001"><g id="Components"><g id="_x31_4a4bcef-8889-4201-8af8-cd50d5235cca_x40_4"><path d="M0,5.9102L81.621,0l8.6035,5.9102v.2993H0v-.2993Z"/><path d="M0,53.0427l65.9102-2.9925,24.3143,2.9925v.2993H0v-.2993Z"/><path d="M0,11.1472l80.2743-4.1895,9.9502,4.1895v.2993H0v-.2993Z"/><path d="M0,58.2797l62.9925-2.8429,27.232,2.8429v.2993H0v-.2993Z"/><path d="M0,16.3842l79.0773-4.0399,11.1472,4.0399v.2992H0v-.2992Z"/><path d="M0,63.5166l59.7008-2.6933,30.5237,2.6933v.2992H0v-.2992Z"/><path d="M0,21.621l77.7307-3.8902,12.4938,3.8902v.2993H0v-.2993Z"/><path d="M0,68.753l55.8105-2.5436,34.414,2.5436v.2993H0v-.2993Z"/><path d="M0,26.6334l76.2344-3.5162,13.9901,3.5162v.3741H0v-.3741Z"/><path d="M0,73.9903l51.1721-2.394,39.0524,2.394v.2992H0v-.2992Z"/><path d="M0,32.0952l74.5886-3.7407,15.6359,3.7407v.2992H0v-.2992Z"/><path d="M0,79.2275l45.3367-2.2444,44.8878,2.2444v.2992H0v-.2992Z"/><path d="M0,37.3319l72.793-3.4413,17.4315,3.4413v.2993H0v-.2993Z"/><path d="M0,84.4637l37.7057-2.0948,52.5188,2.0948v.2993H0v-.2993Z"/><path d="M0,42.5688l70.7731-3.2918,19.4514,3.2918v.2993H0v-.2993Z"/><path d="M0,89.7008l25.9601-1.9451,64.2644,1.9451v.2993H0v-.2993Z"/><path d="M0,47.8058l68.4539-3.1422,21.7706,3.1422v.2992H0v-.2992Z"/><path d="M135.0843,67.56c-3.593,0-6.72-.56-9.38-1.68-2.613-1.12-4.643-2.7066-6.09-4.76-1.4-2.0533-2.1-4.4566-2.1-7.21v-2.03c0-.4666.234-.7.7-.7h5.11c.467,0,.7.2334.7.7v1.68c0,2.38,1.027,4.34,3.08,5.88,2.054,1.54,4.877,2.31,8.47,2.31,3.22,0,5.647-.6766,7.28-2.03,1.634-1.3533,2.45-3.1266,2.45-5.32,0-1.4466-.42-2.6833-1.26-3.71-.84-1.0266-2.076-1.96-3.71-2.8-1.586-.8866-3.92-1.9366-7-3.15-3.406-1.3066-6.113-2.4966-8.12-3.57-1.96-1.0733-3.593-2.4733-4.9-4.2-1.306-1.7733-1.96-3.99-1.96-6.65,0-4.0133,1.424-7.1633,4.27-9.45,2.894-2.2866,6.79-3.43,11.69-3.43,3.454,0,6.487.5834,9.1,1.75,2.614,1.1667,4.62,2.8,6.02,4.9,1.447,2.1,2.17,4.5267,2.17,7.28v1.4c0,.4667-.233.7-.7.7h-5.25c-.466,0-.7-.2333-.7-.7v-1.05c0-2.4266-.98-4.4333-2.94-6.02-1.913-1.6333-4.573-2.45-7.98-2.45-2.893,0-5.133.6067-6.72,1.82-1.586,1.1667-2.38,2.87-2.38,5.11,0,1.54.397,2.8,1.19,3.78.794.98,1.96,1.8667,3.5,2.66,1.587.7467,3.99,1.7267,7.21,2.94,3.314,1.3067,5.997,2.52,8.05,3.64,2.054,1.0734,3.757,2.52,5.11,4.34,1.354,1.7734,2.03,3.99,2.03,6.65,0,4.1067-1.516,7.3734-4.55,9.8-2.986,2.38-7.116,3.57-12.39,3.57ZM185.6873,32.07c0-.4666.233-.7.7-.7h5.25c.466,0,.7.2334.7.7v34.23c0,.4667-.234.7-.7.7h-5.25c-.467,0-.7-.2333-.7-.7v-2.59c0-.0933-.047-.14-.14-.14-.047-.0466-.117-.0233-.21.07-1.867,2.5667-4.737,3.85-8.61,3.85-2.287,0-4.41-.4433-6.37-1.33-1.914-.8866-3.454-2.1933-4.62-3.92-1.167-1.7266-1.75-3.8266-1.75-6.3v-23.87c0-.4666.233-.7.7-.7h5.25c.466,0,.7.2334.7.7v21.77c0,2.4267.63,4.34,1.89,5.74,1.306,1.4,3.126,2.1,5.46,2.1s4.2-.7,5.6-2.1c1.4-1.4466,2.1-3.36,2.1-5.74v-21.77ZM235.2533,40.33c.886,2.52,1.33,5.5067,1.33,8.96,0,3.2667-.374,6.09-1.12,8.47-.98,3.1267-2.59,5.5534-4.83,7.28-2.24,1.68-5.11,2.52-8.61,2.52-1.587,0-3.104-.3033-4.55-.91-1.4-.6533-2.614-1.5633-3.64-2.73-.094-.0933-.187-.1166-.28-.07-.047.0467-.07.1167-.07.21v15.61c0,.4667-.234.7-.7.7h-5.32c-.467,0-.7-.2333-.7-.7v-47.6c0-.4666.233-.7.7-.7h5.32c.466,0,.7.2334.7.7v2.31c0,.0934.023.1634.07.21.093.0467.186.0234.28-.07,1.026-1.1666,2.24-2.0766,3.64-2.73,1.4-.6533,2.916-.98,4.55-.98,3.36,0,6.136.84,8.33,2.52,2.24,1.6334,3.873,3.9667,4.9,7ZM227.5533,58.39c1.493-2.24,2.24-5.32,2.24-9.24,0-3.5933-.584-6.4866-1.75-8.68-1.354-2.5666-3.57-3.85-6.65-3.85-2.707,0-4.76,1.26-6.16,3.78-1.12,2.0067-1.68,4.9467-1.68,8.82,0,3.92.606,6.9067,1.82,8.96,1.353,2.38,3.336,3.57,5.95,3.57,2.8,0,4.876-1.12,6.23-3.36ZM278.0063,44.74c.186,1.9134.256,4.06.21,6.44,0,.4667-.234.7-.7.7h-22.33c-.187,0-.28.0934-.28.28,0,1.5867.14,2.8.42,3.64.513,1.8667,1.54,3.3367,3.08,4.41,1.586,1.0267,3.57,1.54,5.95,1.54,3.453,0,6.113-1.4233,7.98-4.27.233-.4666.536-.5366.91-.21l3.99,2.66c.326.28.396.5834.21.91-1.307,2.1-3.174,3.7567-5.6,4.97-2.38,1.2134-5.087,1.82-8.12,1.82-3.407,0-6.277-.7466-8.61-2.24-2.334-1.4933-4.084-3.6166-5.25-6.37-1.12-2.7533-1.68-6.09-1.68-10.01,0-3.4066.256-5.9966.77-7.77.84-3.22,2.52-5.7633,5.04-7.63,2.52-1.8666,5.576-2.8,9.17-2.8,4.713,0,8.236,1.19,10.57,3.57,2.333,2.3334,3.756,5.7867,4.27,10.36ZM263.1663,36.62c-2.007,0-3.664.5134-4.97,1.54-1.307.98-2.194,2.31-2.66,3.99-.327,1.0267-.537,2.3334-.63,3.92,0,.1867.093.28.28.28h16.03c.186,0,.28-.0933.28-.28-.094-1.54-.234-2.6833-.42-3.43-.467-1.82-1.4-3.2666-2.8-4.34-1.354-1.12-3.057-1.68-5.11-1.68ZM306.5053,31.02c1.493,0,2.847.3034,4.06.91.327.14.443.42.35.84l-1.12,5.25c-.047.42-.327.56-.84.42-.793-.3266-1.727-.49-2.8-.49l-.98.07c-2.193.0934-4.013.8634-5.46,2.31-1.4,1.4-2.1,3.2434-2.1,5.53v20.44c0,.4667-.233.7-.7.7h-5.32c-.467,0-.7-.2333-.7-.7v-34.23c0-.4666.233-.7.7-.7h5.32c.467,0,.7.2334.7.7v3.71c0,.14.023.2334.07.28.093,0,.163-.0466.21-.14,2.1-3.2666,4.97-4.9,8.61-4.9ZM321.7723,67c-.467,0-.7-.2333-.7-.7V18.7c0-.4666.233-.7.7-.7h5.32c.466,0,.7.2334.7.7v47.6c0,.4667-.234.7-.7.7h-5.32ZM345.8063,25.77c-1.306,0-2.38-.42-3.22-1.26-.84-.84-1.26-1.9133-1.26-3.22s.42-2.38,1.26-3.22c.84-.84,1.914-1.26,3.22-1.26,1.307,0,2.38.42,3.22,1.26.84.84,1.26,1.9134,1.26,3.22s-.42,2.38-1.26,3.22c-.84.84-1.913,1.26-3.22,1.26ZM343.0063,66.93c-.466,0-.7-.2333-.7-.7v-34.16c0-.4666.234-.7.7-.7h5.32c.467,0,.7.2334.7.7v34.16c0,.4667-.233.7-.7.7h-5.32ZM379.6783,30.88c3.827,0,6.86,1.12,9.1,3.36,2.24,2.1934,3.36,5.18,3.36,8.96v23.1c0,.4667-.233.7-.7.7h-5.32c-.467,0-.7-.2333-.7-.7v-21.77c0-2.3333-.677-4.2233-2.03-5.67-1.353-1.4466-3.15-2.17-5.39-2.17-2.193,0-3.99.7234-5.39,2.17-1.4,1.4467-2.1,3.3134-2.1,5.6v21.84c0,.4667-.233.7-.7.7h-5.32c-.467,0-.7-.2333-.7-.7v-34.23c0-.4666.233-.7.7-.7h5.32c.467,0,.7.2334.7.7v2.52c0,.0934.023.1634.07.21.093.0467.163.0234.21-.07,2.007-2.5666,4.97-3.85,8.89-3.85ZM434.3573,44.74c.187,1.9134.257,4.06.21,6.44,0,.4667-.233.7-.7.7h-22.33c-.186,0-.28.0934-.28.28,0,1.5867.14,2.8.42,3.64.514,1.8667,1.54,3.3367,3.08,4.41,1.587,1.0267,3.57,1.54,5.95,1.54,3.454,0,6.114-1.4233,7.98-4.27.234-.4666.537-.5366.91-.21l3.99,2.66c.327.28.397.5834.21.91-1.306,2.1-3.173,3.7567-5.6,4.97-2.38,1.2134-5.086,1.82-8.12,1.82-3.406,0-6.276-.7466-8.61-2.24-2.333-1.4933-4.083-3.6166-5.25-6.37-1.12-2.7533-1.68-6.09-1.68-10.01,0-3.4066.257-5.9966.77-7.77.84-3.22,2.52-5.7633,5.04-7.63,2.52-1.8666,5.577-2.8,9.17-2.8,4.714,0,8.237,1.19,10.57,3.57,2.334,2.3334,3.757,5.7867,4.27,10.36ZM419.5173,36.62c-2.006,0-3.663.5134-4.97,1.54-1.306.98-2.193,2.31-2.66,3.99-.326,1.0267-.536,2.3334-.63,3.92,0,.1867.094.28.28.28h16.03c.187,0,.28-.0933.28-.28-.093-1.54-.233-2.6833-.42-3.43-.466-1.82-1.4-3.2666-2.8-4.34-1.353-1.12-3.056-1.68-5.11-1.68ZM459.9253,30.81c2.846,0,5.32.5134,7.42,1.54,2.146.98,3.78,2.38,4.9,4.2,1.166,1.7734,1.75,3.8034,1.75,6.09v23.66c0,.4667-.234.7-.7.7h-5.32c-.467,0-.7-.2333-.7-.7v-2.52c0-.2333-.117-.28-.35-.14-1.214,1.26-2.707,2.24-4.48,2.94-1.727.6534-3.664.98-5.81.98-3.454,0-6.324-.8633-8.61-2.59-2.24-1.7733-3.36-4.4333-3.36-7.98,0-3.64,1.26-6.4866,3.78-8.54,2.566-2.1,6.136-3.15,10.71-3.15h7.84c.186,0,.28-.0933.28-.28v-1.89c0-2.0533-.607-3.64-1.82-4.76-1.167-1.1666-2.964-1.75-5.39-1.75-1.96,0-3.57.3967-4.83,1.19-1.214.7467-1.96,1.7734-2.24,3.08-.14.4667-.42.6767-.84.63l-5.67-.77c-.467-.0933-.677-.28-.63-.56.373-2.7533,1.843-4.9933,4.41-6.72,2.566-1.7733,5.786-2.66,9.66-2.66ZM458.1053,61.89c2.473,0,4.62-.6533,6.44-1.96,1.82-1.3066,2.73-2.9633,2.73-4.97v-4.13c0-.1866-.094-.28-.28-.28h-6.58c-2.754,0-4.947.5367-6.58,1.61-1.634,1.0734-2.45,2.5667-2.45,4.48,0,1.7267.606,3.0334,1.82,3.92,1.26.8867,2.893,1.33,4.9,1.33ZM502.8773,31.02c1.493,0,2.847.3034,4.06.91.327.14.443.42.35.84l-1.12,5.25c-.047.42-.327.56-.84.42-.793-.3266-1.727-.49-2.8-.49l-.98.07c-2.193.0934-4.013.8634-5.46,2.31-1.4,1.4-2.1,3.2434-2.1,5.53v20.44c0,.4667-.233.7-.7.7h-5.32c-.467,0-.7-.2333-.7-.7v-34.23c0-.4666.233-.7.7-.7h5.32c.467,0,.7.2334.7.7v3.71c0,.14.023.2334.07.28.093,0,.163-.0466.21-.14,2.1-3.2666,4.97-4.9,8.61-4.9ZM566.2473,67c-.42,0-.7-.1866-.84-.56l-2.52-8.19c-.047-.14-.14-.21-.28-.21h-19.67c-.14,0-.233.07-.28.21l-2.52,8.19c-.14.3734-.42.56-.84.56h-5.67c-.513,0-.7-.2566-.56-.77l15.33-47.67c.14-.3733.42-.56.84-.56h7c.42,0,.7.1867.84.56l15.47,47.67.07.28c0,.3267-.21.49-.63.49h-5.74ZM544.4073,52.37c-.047.0934-.047.1867,0,.28.093.0467.187.07.28.07h16.1c.093,0,.163-.0233.21-.07.093-.0933.117-.1866.07-.28l-8.12-25.97c-.047-.0933-.117-.14-.21-.14s-.163.0467-.21.14l-8.12,25.97ZM597.2723,67.56c-3.547,0-6.58-.8866-9.1-2.66-2.52-1.82-4.247-4.27-5.18-7.35-.7-2.1466-1.05-4.97-1.05-8.47,0-3.22.35-6.0433,1.05-8.47.933-2.9866,2.66-5.3666,5.18-7.14,2.567-1.7733,5.6-2.66,9.1-2.66s6.557.8867,9.17,2.66c2.613,1.7734,4.317,4.0134,5.11,6.72.28.7467.467,1.5167.56,2.31,0,.3734-.21.6067-.63.7l-5.25.77h-.14c-.327,0-.56-.21-.7-.63l-.21-1.12c-.373-1.5866-1.283-2.9166-2.73-3.99-1.447-1.0733-3.197-1.61-5.25-1.61-2.007,0-3.71.5367-5.11,1.61-1.4,1.0734-2.31,2.4967-2.73,4.27-.42,1.68-.63,3.8967-.63,6.65,0,2.7067.21,4.9.63,6.58.467,1.8667,1.377,3.3367,2.73,4.41,1.4,1.0734,3.103,1.61,5.11,1.61,2.053,0,3.803-.5366,5.25-1.61,1.493-1.0733,2.427-2.4733,2.8-4.2.047-.0466.047-.0933,0-.14,0-.0933.023-.1633.07-.21v-.28c.14-.3733.397-.5133.77-.42l5.25.84c.373.0934.56.28.56.56v.28c0,.42-.117.9334-.35,1.54-.793,2.8467-2.497,5.1334-5.11,6.86-2.613,1.7267-5.67,2.59-9.17,2.59ZM637.0583,30.81c2.846,0,5.32.5134,7.42,1.54,2.146.98,3.78,2.38,4.9,4.2,1.166,1.7734,1.75,3.8034,1.75,6.09v23.66c0,.4667-.234.7-.7.7h-5.32c-.467,0-.7-.2333-.7-.7v-2.52c0-.2333-.117-.28-.35-.14-1.214,1.26-2.707,2.24-4.48,2.94-1.727.6534-3.664.98-5.81.98-3.454,0-6.324-.8633-8.61-2.59-2.24-1.7733-3.36-4.4333-3.36-7.98,0-3.64,1.26-6.4866,3.78-8.54,2.566-2.1,6.136-3.15,10.71-3.15h7.84c.186,0,.28-.0933.28-.28v-1.89c0-2.0533-.607-3.64-1.82-4.76-1.167-1.1666-2.964-1.75-5.39-1.75-1.96,0-3.57.3967-4.83,1.19-1.214.7467-1.96,1.7734-2.24,3.08-.14.4667-.42.6767-.84.63l-5.67-.77c-.467-.0933-.677-.28-.63-.56.373-2.7533,1.843-4.9933,4.41-6.72,2.566-1.7733,5.786-2.66,9.66-2.66ZM635.2383,61.89c2.473,0,4.62-.6533,6.44-1.96,1.82-1.3066,2.73-2.9633,2.73-4.97v-4.13c0-.1866-.094-.28-.28-.28h-6.58c-2.754,0-4.947.5367-6.58,1.61-1.634,1.0734-2.45,2.5667-2.45,4.48,0,1.7267.606,3.0334,1.82,3.92,1.26.8867,2.893,1.33,4.9,1.33ZM686.5203,18.7c0-.4666.233-.7.7-.7h5.32c.466,0,.7.2334.7.7v47.6c0,.4667-.234.7-.7.7h-5.32c-.467,0-.7-.2333-.7-.7v-2.31c0-.0933-.047-.1633-.14-.21-.047-.0466-.117-.0233-.21.07-1.027,1.1667-2.24,2.0767-3.64,2.73-1.4.6534-2.9171.98-4.55.98-3.36,0-6.16-.8166-8.4-2.45-2.194-1.68-3.804-4.0366-4.83-7.07-.887-2.4733-1.33-5.46-1.33-8.96,0-3.2666.373-6.09,1.12-8.47.98-3.08,2.59-5.4833,4.83-7.21,2.24-1.7266,5.11-2.59,8.61-2.59,1.586,0,3.08.3267,4.48.98,1.446.6067,2.683,1.4934,3.71,2.66.093.0934.163.1167.21.07.093-.0466.14-.1166.14-.21v-15.61ZM684.7703,57.97c1.073-1.96,1.61-4.9,1.61-8.82s-.584-6.9066-1.75-8.96c-1.354-2.38-3.337-3.57-5.95-3.57-2.8,0-4.877,1.12-6.23,3.36-1.494,2.3334-2.24,5.4134-2.24,9.24,0,3.5934.583,6.4867,1.75,8.68,1.353,2.5667,3.57,3.85,6.65,3.85,2.706,0,4.76-1.26,6.16-3.78ZM736.1313,44.74c.187,1.9134.257,4.06.21,6.44,0,.4667-.233.7-.7.7h-22.33c-.187,0-.28.0934-.28.28,0,1.5867.14,2.8.42,3.64.513,1.8667,1.54,3.3367,3.08,4.41,1.587,1.0267,3.57,1.54,5.95,1.54,3.453,0,6.113-1.4233,7.98-4.27.233-.4666.537-.5366.91-.21l3.9901,2.66c.327.28.397.5834.21.91-1.307,2.1-3.173,3.7567-5.6,4.97-2.38,1.2134-5.087,1.82-8.12,1.82-3.407,0-6.277-.7466-8.61-2.24-2.333-1.4933-4.083-3.6166-5.25-6.37-1.1201-2.7533-1.6801-6.09-1.6801-10.01,0-3.4066.257-5.9966.77-7.77.84-3.22,2.52-5.7633,5.04-7.63,2.52-1.8666,5.577-2.8,9.17-2.8,4.713,0,8.237,1.19,10.57,3.57,2.3329,2.3334,3.757,5.7867,4.27,10.36ZM721.2913,36.62c-2.007,0-3.663.5134-4.97,1.54-1.307.98-2.193,2.31-2.66,3.99-.327,1.0267-.537,2.3334-.63,3.92,0,.1867.093.28.28.28h16.03c.187,0,.28-.0933.28-.28-.093-1.54-.233-2.6833-.42-3.43-.467-1.82-1.4-3.2666-2.8-4.34-1.353-1.12-3.057-1.68-5.11-1.68ZM786.0503,30.88c3.547,0,6.347,1.0734,8.4,3.22,2.054,2.1,3.08,5.04,3.08,8.82v23.38c0,.4667-.233.7-.7.7h-5.25c-.466,0-.7-.2333-.7-.7v-21.98c0-2.3333-.653-4.1766-1.96-5.53-1.26-1.4-2.963-2.1-5.11-2.1s-3.896.6767-5.25,2.03c-1.353,1.3534-2.03,3.1734-2.03,5.46v22.12c0,.4667-.233.7-.7.7h-5.25c-.466,0-.7-.2333-.7-.7v-21.98c0-2.3333-.653-4.1766-1.96-5.53-1.26-1.4-2.963-2.1-5.11-2.1s-3.873.6767-5.18,2.03c-1.26,1.3534-1.89,3.1734-1.89,5.46v22.12c0,.4667-.233.7-.7.7h-5.32c-.4659,0-.7-.2333-.7-.7v-34.23c0-.4666.234-.7.7-.7h5.32c.467,0,.7.2334.7.7v2.38c0,.0934.024.1634.07.21.094.0467.187.0234.28-.07,2.054-2.4733,5.04-3.71,8.96-3.71,2.38,0,4.41.4667,6.09,1.4,1.68.8867,2.987,2.2167,3.92,3.99.14.1867.28.1867.42,0,1.12-1.82,2.59-3.1733,4.41-4.06,1.867-.8866,3.92-1.33,6.16-1.33ZM809.0453,80.93c-.326,0-.49-.2333-.49-.7v-4.13c0-.4666.234-.7.7-.7h.14c1.867-.0466,3.337-.28,4.41-.7,1.074-.42,1.96-1.2133,2.66-2.38.7-1.12,1.377-2.8233,2.03-5.11.047-.0466.047-.1166,0-.21v-.21l-11.69-34.65-.07-.28c0-.3266.21-.49.63-.49h5.67c.42,0,.7.1867.84.56l7.91,26.39c.047.0934.117.14.21.14.094,0,.164-.0466.21-.14l7.84-26.39c.14-.3733.42-.56.84-.56h5.53c.514,0,.7.2567.56.77l-12.74,37.31c-1.073,3.22-2.146,5.6-3.22,7.14-1.073,1.5867-2.473,2.7067-4.2,3.36-1.726.6534-4.153.98-7.28.98h-.49Z"/></g></g></svg>