<svg width="2400" height="580" viewBox="0 0 2400 580" fill="none" xmlns="http://www.w3.org/2000/svg">
<g clip-path="url(#clip0_1553_7554)">
<path d="M777.637 147.84C778.757 153.067 780.903 157.827 784.077 162.12C787.437 166.227 791.823 169.493 797.237 171.92C802.837 174.347 809.463 175.56 817.117 175.56C828.877 175.56 837.65 172.853 843.437 167.44C849.223 161.84 852.117 155.307 852.117 147.84C852.117 141.68 850.25 136.547 846.517 132.44C842.97 128.333 837.93 124.88 831.397 122.08C824.863 119.093 817.397 116.293 808.997 113.68C801.343 111.44 793.97 109.107 786.877 106.68C779.783 104.067 773.343 100.893 767.557 97.16C761.957 93.24 757.477 88.2933 754.117 82.32C750.757 76.16 749.17 68.5067 749.357 59.36C749.357 47.4133 752.157 37.3333 757.757 29.12C763.357 20.72 771.197 14.3733 781.277 10.08C791.357 5.78667 802.93 3.64 815.997 3.64C827.01 3.64 836.903 5.22667 845.677 8.39999C854.637 11.3867 862.197 15.8667 868.357 21.84C874.517 27.6267 879.09 34.8133 882.077 43.4L851.557 53.48C850.437 49.3733 848.197 45.7333 844.837 42.56C841.477 39.2 837.277 36.5867 832.237 34.72C827.383 32.8533 822.063 31.8267 816.277 31.64C809.93 31.4533 804.237 32.3867 799.197 34.44C794.343 36.4933 790.423 39.48 787.437 43.4C784.45 47.1333 782.957 51.52 782.957 56.56C782.957 62.3467 784.637 66.92 787.997 70.28C791.357 73.4533 795.743 76.16 801.157 78.4C806.757 80.4533 812.917 82.6 819.637 84.84C827.477 87.08 835.223 89.6933 842.877 92.68C850.717 95.48 857.81 99.12 864.157 103.6C870.69 107.893 875.917 113.4 879.837 120.12C883.757 126.84 885.717 135.24 885.717 145.32C885.717 156.147 883.197 165.947 878.157 174.72C873.303 183.493 865.837 190.493 855.757 195.72C845.677 200.947 833.17 203.56 818.237 203.56C806.103 203.56 794.997 201.787 784.917 198.24C775.023 194.507 766.717 189.28 759.997 182.56C753.463 175.653 749.17 167.533 747.117 158.2L777.637 147.84Z" fill="#1E1E1E"/>
<path d="M1057.64 201.6H1028.52L1026.56 187.6C1021.89 192.64 1016.29 196.56 1009.76 199.36C1003.23 202.16 996.319 203.56 989.039 203.56C978.026 203.56 968.506 201.32 960.479 196.84C952.639 192.173 946.572 185.453 942.279 176.68C937.986 167.72 935.839 156.707 935.839 143.64V61.6H967.479V139.44C967.479 151.013 969.812 159.88 974.479 166.04C979.146 172.013 986.332 175 996.039 175C1005.37 175 1012.65 172.013 1017.88 166.04C1023.29 159.88 1026 150.827 1026 138.88V61.6H1057.64V201.6Z" fill="#1E1E1E"/>
<path d="M1143.48 180.88L1147.12 180.04V257.6H1115.48V61.6H1144.04L1146.28 78.96C1150.95 73.5467 1157.01 68.9733 1164.48 65.24C1171.95 61.5067 1181 59.64 1191.64 59.64C1203.77 59.64 1214.51 62.6267 1223.84 68.6C1233.36 74.5733 1240.73 82.9733 1245.96 93.8C1251.37 104.44 1254.08 117.04 1254.08 131.6C1254.08 145.973 1251.37 158.573 1245.96 169.4C1240.73 180.227 1233.45 188.627 1224.12 194.6C1214.79 200.573 1203.96 203.56 1191.64 203.56C1180.44 203.56 1170.73 201.413 1162.52 197.12C1154.31 192.64 1147.96 187.227 1143.48 180.88ZM1220.2 131.6C1220.2 118.72 1216.75 108.267 1209.84 100.24C1203.12 92.2133 1194.44 88.2 1183.8 88.2C1177.08 88.2 1170.92 89.88 1165.32 93.24C1159.91 96.6 1155.52 101.453 1152.16 107.8C1148.8 114.147 1147.12 122.08 1147.12 131.6C1147.12 140.933 1148.8 148.867 1152.16 155.4C1155.52 161.747 1159.91 166.6 1165.32 169.96C1170.92 173.32 1177.08 175 1183.8 175C1194.44 175 1203.12 170.987 1209.84 162.96C1216.75 154.933 1220.2 144.48 1220.2 131.6Z" fill="#1E1E1E"/>
<path d="M1367.36 203.56C1353.36 203.56 1341.04 200.48 1330.4 194.32C1319.95 188.16 1311.74 179.573 1305.76 168.56C1299.98 157.547 1297.08 144.853 1297.08 130.48C1297.08 116.853 1299.98 104.72 1305.76 94.08C1311.55 83.44 1319.58 75.04 1329.84 68.88C1340.11 62.72 1351.78 59.64 1364.84 59.64C1378.1 59.64 1389.76 62.5333 1399.84 68.32C1409.92 74.1067 1417.76 82.2267 1423.36 92.68C1429.15 102.947 1432.04 114.893 1432.04 128.52C1432.04 130.76 1431.95 133.187 1431.76 135.8C1431.58 138.227 1431.3 140.84 1430.92 143.64H1331.24C1332.18 150.173 1334.23 155.867 1337.4 160.72C1340.76 165.387 1344.96 169.027 1350 171.64C1355.04 174.253 1360.83 175.56 1367.36 175.56C1375.2 175.56 1382.2 173.973 1388.36 170.8C1394.71 167.627 1399.1 163.427 1401.52 158.2L1429.24 167.44C1423.64 178.64 1415.34 187.507 1404.32 194.04C1393.31 200.387 1380.99 203.56 1367.36 203.56ZM1397.6 117.88C1397.42 112.093 1395.83 106.867 1392.84 102.2C1389.86 97.5333 1385.94 93.8933 1381.08 91.28C1376.23 88.48 1370.82 87.08 1364.84 87.08C1359.62 87.08 1354.67 88.3867 1350 91C1345.34 93.6133 1341.32 97.2533 1337.96 101.92C1334.79 106.4 1332.74 111.72 1331.8 117.88H1397.6Z" fill="#1E1E1E"/>
<path d="M1482.87 61.6H1511.43L1513.95 78.96C1517.68 74.2933 1522.07 70.4667 1527.11 67.48C1532.15 64.3067 1537.56 62.16 1543.35 61.04C1549.32 59.92 1555.3 60.1067 1561.27 61.6V90.72C1556.42 89.04 1551.19 88.6667 1545.59 89.6C1540.18 90.3467 1535.14 92.4 1530.47 95.76C1525.8 98.9333 1521.98 103.507 1518.99 109.48C1516 115.267 1514.51 122.453 1514.51 131.04V201.6H1482.87V61.6Z" fill="#1E1E1E"/>
<path d="M1607.23 0H1638.87V201.6H1607.23V0Z" fill="#1E1E1E"/>
<path d="M1701.34 61.6H1732.98V201.6H1701.34V61.6ZM1717.3 40.32C1711.51 40.32 1706.66 38.36 1702.74 34.44C1698.82 30.52 1696.86 25.8533 1696.86 20.44C1696.86 14.6533 1698.82 9.8 1702.74 5.87999C1706.66 1.96 1711.51 0 1717.3 0C1722.9 0 1727.66 1.96 1731.58 5.87999C1735.5 9.8 1737.46 14.6533 1737.46 20.44C1737.46 25.8533 1735.5 30.52 1731.58 34.44C1727.66 38.36 1722.9 40.32 1717.3 40.32Z" fill="#1E1E1E"/>
<path d="M1795.79 61.6H1824.35L1826.59 75.32C1831.26 70.4667 1836.76 66.64 1843.11 63.84C1849.64 61.04 1856.64 59.64 1864.11 59.64C1875.12 59.64 1884.55 61.9733 1892.39 66.64C1900.42 71.12 1906.58 77.84 1910.87 86.8C1915.16 95.5733 1917.31 106.587 1917.31 119.84V201.6H1885.67V124.04C1885.67 112.28 1883.24 103.413 1878.39 97.44C1873.72 91.4667 1866.63 88.48 1857.11 88.48C1847.4 88.48 1840.03 91.56 1834.99 97.72C1829.95 103.693 1827.43 112.56 1827.43 124.32V201.6H1795.79V61.6Z" fill="#1E1E1E"/>
<path d="M2035.92 203.56C2021.92 203.56 2009.6 200.48 1998.96 194.32C1988.5 188.16 1980.29 179.573 1974.32 168.56C1968.53 157.547 1965.64 144.853 1965.64 130.48C1965.64 116.853 1968.53 104.72 1974.32 94.08C1980.1 83.44 1988.13 75.04 1998.4 68.88C2008.66 62.72 2020.33 59.64 2033.4 59.64C2046.65 59.64 2058.32 62.5333 2068.4 68.32C2078.48 74.1067 2086.32 82.2267 2091.92 92.68C2097.7 102.947 2100.6 114.893 2100.6 128.52C2100.6 130.76 2100.5 133.187 2100.32 135.8C2100.13 138.227 2099.85 140.84 2099.48 143.64H1999.8C2000.73 150.173 2002.78 155.867 2005.96 160.72C2009.32 165.387 2013.52 169.027 2018.56 171.64C2023.6 174.253 2029.38 175.56 2035.92 175.56C2043.76 175.56 2050.76 173.973 2056.92 170.8C2063.26 167.627 2067.65 163.427 2070.08 158.2L2097.8 167.44C2092.2 178.64 2083.89 187.507 2072.88 194.04C2061.86 200.387 2049.54 203.56 2035.92 203.56ZM2066.16 117.88C2065.97 112.093 2064.38 106.867 2061.4 102.2C2058.41 97.5333 2054.49 93.8933 2049.64 91.28C2044.78 88.48 2039.37 87.08 2033.4 87.08C2028.17 87.08 2023.22 88.3867 2018.56 91C2013.89 93.6133 2009.88 97.2533 2006.52 101.92C2003.34 106.4 2001.29 111.72 2000.36 117.88H2066.16Z" fill="#1E1E1E"/>
<path d="M2234.86 201.6L2232.06 184.52C2227.58 190.493 2222.26 195.067 2216.1 198.24C2209.94 201.413 2201.73 203 2191.46 203C2181.76 203 2173.36 201.413 2166.26 198.24C2159.17 194.88 2153.66 190.307 2149.74 184.52C2146.01 178.547 2144.14 171.64 2144.14 163.8C2144.14 152.04 2148.44 142.24 2157.02 134.4C2165.8 126.373 2178.58 121.427 2195.38 119.56L2232.06 115.64V104.72C2232.06 100.24 2230.1 96.2267 2226.18 92.68C2222.26 88.9467 2216.01 87.08 2207.42 87.08C2199.96 87.08 2193.42 88.9467 2187.82 92.68C2182.41 96.2267 2178.77 101.64 2176.9 108.92L2149.46 98.84C2153.01 86.52 2160.01 76.9067 2170.46 70C2181.1 63.0933 2193.98 59.64 2209.1 59.64C2227.4 59.64 2241.12 64.2133 2250.26 73.36C2259.41 82.5067 2263.98 94.1733 2263.98 108.36V201.6H2234.86ZM2232.06 140L2198.46 144.2C2191.37 145.133 2186.05 147.187 2182.5 150.36C2178.96 153.347 2177.18 157.173 2177.18 161.84C2177.18 166.133 2178.86 169.867 2182.22 173.04C2185.77 176.027 2190.53 177.52 2196.5 177.52C2204.16 177.52 2210.6 176.12 2215.82 173.32C2221.24 170.52 2225.25 166.507 2227.86 161.28C2230.66 156.053 2232.06 149.613 2232.06 141.96V140Z" fill="#1E1E1E"/>
<path d="M2320.08 61.6H2348.64L2351.16 78.96C2354.89 74.2933 2359.28 70.4667 2364.32 67.48C2369.36 64.3067 2374.77 62.16 2380.56 61.04C2386.53 59.92 2392.51 60.1067 2398.48 61.6V90.72C2393.63 89.04 2388.4 88.6667 2382.8 89.6C2377.39 90.3467 2372.35 92.4 2367.68 95.76C2363.01 98.9333 2359.19 103.507 2356.2 109.48C2353.21 115.267 2351.72 122.453 2351.72 131.04V201.6H2320.08V61.6Z" fill="#1E1E1E"/>
<path d="M850.157 349.823H840.077L781.277 518.103H747.117L816.557 322.103H873.117L942.837 518.103H908.677L850.157 349.823ZM785.197 442.783H899.437V470.223H785.197V442.783Z" fill="#1E1E1E"/>
<path d="M1045 520.063C1031.56 520.063 1019.71 517.077 1009.44 511.103C999.173 504.943 991.146 496.543 985.36 485.903C979.76 475.263 976.96 462.85 976.96 448.663C976.96 434.29 979.853 421.69 985.64 410.863C991.426 400.037 999.453 391.543 1009.72 385.383C1020.17 379.223 1032.21 376.143 1045.84 376.143C1060.21 376.143 1073 379.597 1084.2 386.503C1095.4 393.223 1103.43 402.37 1108.28 413.943L1079.44 423.463C1077.01 417.677 1072.81 413.103 1066.84 409.743C1061.05 406.197 1054.43 404.423 1046.96 404.423C1039.49 404.423 1033.05 406.29 1027.64 410.023C1022.23 413.57 1018.03 418.61 1015.04 425.143C1012.24 431.677 1010.84 439.423 1010.84 448.383C1010.84 461.823 1014.11 472.463 1020.64 480.303C1027.17 487.957 1036.13 491.783 1047.52 491.783C1054.8 491.783 1061.33 490.197 1067.12 487.023C1072.91 483.663 1077.39 478.997 1080.56 473.023L1108.84 482.823C1103.43 494.21 1094.93 503.263 1083.36 509.983C1071.97 516.703 1059.19 520.063 1045 520.063Z" fill="#1E1E1E"/>
<path d="M1242.9 518.103L1240.1 501.023C1235.62 506.997 1230.3 511.57 1224.14 514.743C1217.98 517.917 1209.77 519.503 1199.5 519.503C1189.8 519.503 1181.4 517.917 1174.3 514.743C1167.21 511.383 1161.7 506.81 1157.78 501.023C1154.05 495.05 1152.18 488.143 1152.18 480.303C1152.18 468.543 1156.48 458.743 1165.06 450.903C1173.84 442.877 1186.62 437.93 1203.42 436.063L1240.1 432.143V421.223C1240.1 416.743 1238.14 412.73 1234.22 409.183C1230.3 405.45 1224.05 403.583 1215.46 403.583C1208 403.583 1201.46 405.45 1195.86 409.183C1190.45 412.73 1186.81 418.143 1184.94 425.423L1157.5 415.343C1161.05 403.023 1168.05 393.41 1178.5 386.503C1189.14 379.597 1202.02 376.143 1217.14 376.143C1235.44 376.143 1249.16 380.717 1258.3 389.863C1267.45 399.01 1272.02 410.677 1272.02 424.863V518.103H1242.9ZM1240.1 456.503L1206.5 460.703C1199.41 461.637 1194.09 463.69 1190.54 466.863C1187 469.85 1185.22 473.677 1185.22 478.343C1185.22 482.637 1186.9 486.37 1190.26 489.543C1193.81 492.53 1198.57 494.023 1204.54 494.023C1212.2 494.023 1218.64 492.623 1223.86 489.823C1229.28 487.023 1233.29 483.01 1235.9 477.783C1238.7 472.557 1240.1 466.117 1240.1 458.463V456.503Z" fill="#1E1E1E"/>
<path d="M1431.16 398.823L1427.52 399.663V316.503H1459.16V518.103H1430.6L1428.36 500.743C1423.51 506.157 1417.35 510.73 1409.88 514.463C1402.41 518.197 1393.55 520.063 1383.28 520.063C1370.77 520.063 1359.76 517.077 1350.24 511.103C1340.91 505.13 1333.63 496.73 1328.4 485.903C1323.17 475.077 1320.56 462.477 1320.56 448.103C1320.56 433.73 1323.17 421.13 1328.4 410.303C1333.63 399.477 1340.91 391.077 1350.24 385.103C1359.76 379.13 1370.77 376.143 1383.28 376.143C1394.29 376.143 1403.91 378.383 1412.12 382.863C1420.33 387.157 1426.68 392.477 1431.16 398.823ZM1354.44 448.103C1354.44 460.983 1357.8 471.437 1364.52 479.463C1371.24 487.49 1380.01 491.503 1390.84 491.503C1397.37 491.503 1403.35 489.823 1408.76 486.463C1414.36 483.103 1418.84 478.25 1422.2 471.903C1425.75 465.37 1427.52 457.437 1427.52 448.103C1427.52 438.77 1425.75 430.93 1422.2 424.583C1418.84 418.05 1414.36 413.103 1408.76 409.743C1403.35 406.383 1397.37 404.703 1390.84 404.703C1380.01 404.703 1371.24 408.717 1364.52 416.743C1357.8 424.77 1354.44 435.223 1354.44 448.103Z" fill="#1E1E1E"/>
<path d="M1580.01 520.063C1566.01 520.063 1553.69 516.983 1543.05 510.823C1532.59 504.663 1524.38 496.077 1518.41 485.063C1512.62 474.05 1509.73 461.357 1509.73 446.983C1509.73 433.357 1512.62 421.223 1518.41 410.583C1524.19 399.943 1532.22 391.543 1542.49 385.383C1552.75 379.223 1564.42 376.143 1577.49 376.143C1590.74 376.143 1602.41 379.037 1612.49 384.823C1622.57 390.61 1630.41 398.73 1636.01 409.183C1641.79 419.45 1644.69 431.397 1644.69 445.023C1644.69 447.263 1644.59 449.69 1644.41 452.303C1644.22 454.73 1643.94 457.343 1643.57 460.143H1543.89C1544.82 466.677 1546.87 472.37 1550.05 477.223C1553.41 481.89 1557.61 485.53 1562.65 488.143C1567.69 490.757 1573.47 492.063 1580.01 492.063C1587.85 492.063 1594.85 490.477 1601.01 487.303C1607.35 484.13 1611.74 479.93 1614.17 474.703L1641.89 483.943C1636.29 495.143 1627.98 504.01 1616.97 510.543C1605.95 516.89 1593.63 520.063 1580.01 520.063ZM1610.25 434.383C1610.06 428.597 1608.47 423.37 1605.49 418.703C1602.5 414.037 1598.58 410.397 1593.73 407.783C1588.87 404.983 1583.46 403.583 1577.49 403.583C1572.26 403.583 1567.31 404.89 1562.65 407.503C1557.98 410.117 1553.97 413.757 1550.61 418.423C1547.43 422.903 1545.38 428.223 1544.45 434.383H1610.25Z" fill="#1E1E1E"/>
<path d="M1695.51 378.103H1724.07L1726.31 391.263C1730.98 386.597 1736.49 382.957 1742.83 380.343C1749.18 377.543 1756.09 376.143 1763.55 376.143C1772.89 376.143 1781.29 378.103 1788.75 382.023C1796.22 385.757 1802.29 391.263 1806.95 398.543C1811.81 391.263 1818.43 385.757 1826.83 382.023C1835.23 378.103 1844.29 376.143 1853.99 376.143C1865.01 376.143 1874.53 378.477 1882.55 383.143C1890.77 387.623 1897.11 394.343 1901.59 403.303C1906.07 412.077 1908.31 423.09 1908.31 436.343V518.103H1876.39V440.543C1876.39 428.783 1873.87 419.917 1868.83 413.943C1863.98 407.97 1856.79 404.983 1847.27 404.983C1837.57 404.983 1830.01 408.063 1824.59 414.223C1819.18 420.197 1816.47 429.157 1816.47 441.103V518.103H1784.83V440.543C1784.83 428.783 1782.5 419.917 1777.83 413.943C1773.35 407.97 1766.35 404.983 1756.83 404.983C1747.12 404.983 1739.75 408.063 1734.71 414.223C1729.67 420.197 1727.15 429.063 1727.15 440.823V518.103H1695.51V378.103Z" fill="#1E1E1E"/>
<path d="M2060.01 378.103H2093.33L2011.01 574.103H1979.65L2004.85 514.183L1950.25 378.103H1985.25L2022.21 477.223L2060.01 378.103Z" fill="#1E1E1E"/>
<path d="M501.177 0L556.461 55.6994H1.96045L501.177 0Z" fill="#1E1E1E"/>
<path d="M494.942 75.2356L556.461 120.128H1.96045L494.942 75.2356Z" fill="#1E1E1E"/>
<path d="M477.276 146.107L556.461 184.764H1.96045L477.276 146.107Z" fill="#1E1E1E"/>
<path d="M444.231 209.704L556.461 253.973H1.96045L444.231 209.704Z" fill="#1E1E1E"/>
<path d="M393.104 284.94L556.461 321.311H1.96045L393.104 284.94Z" fill="#1E1E1E"/>
<path d="M330.753 347.914L556.461 382.414H1.96045L330.753 347.914Z" fill="#1E1E1E"/>
<path d="M233.487 422.318L556.461 450.168H1.96045L233.487 422.318Z" fill="#1E1E1E"/>
<path d="M90.2898 491.526L556.461 520H1.96045L90.2898 491.526Z" fill="#1E1E1E"/>
</g>
<defs>
<clipPath id="clip0_1553_7554">
<rect width="2400" height="580" fill="white"/>
</clipPath>
</defs>
</svg>
